<svg xmlns="http://www.w3.org/2000/svg" xmlns:xlink="http://www.w3.org/1999/xlink" width="557" height="455" viewBox="0 0 557 455"><defs><clipPath id="a"><rect width="557" height="455" opacity="0.09" fill="#fff" stroke="#707070" stroke-width="1" transform="translate(169.035 822.864)"/></clipPath><clipPath id="b"><rect width="133" height="56" fill="none"/></clipPath></defs><g transform="translate(-169.035 -822.864)" clip-path="url(#a)"><g transform="translate(173.346 999.681)"><rect width="448" height="52" rx="26" transform="translate(64.762 0.183)" fill="#fbfbfe"/><rect width="478" height="54" rx="27" transform="translate(70.762 52.183)" fill="#fbfbfe"/><rect width="479" height="51" rx="25.5" transform="translate(-0.238 106.183)" fill="#fbfbfe"/><rect width="449" height="54" rx="27" transform="translate(55.762 157.183)" fill="#fbfbfe"/></g><g transform="translate(211.941 879.517)"><g transform="translate(114.167 163.347)" fill="none" stroke="#afafc7" stroke-width="2"><path d="M10,0H224a10,10,0,0,1,10,10V153a0,0,0,0,1,0,0H0a0,0,0,0,1,0,0V10A10,10,0,0,1,10,0Z" stroke="none"/><path d="M10,1H224a9,9,0,0,1,9,9V151a1,1,0,0,1-1,1H2a1,1,0,0,1-1-1V10A9,9,0,0,1,10,1Z" fill="none"/></g><g transform="translate(132.167 179.347)" fill="none" stroke="#afafc7" stroke-width="2"><path d="M10,0H187a10,10,0,0,1,10,10V137a0,0,0,0,1,0,0H0a0,0,0,0,1,0,0V10A10,10,0,0,1,10,0Z" stroke="none"/><path d="M10,1H187a9,9,0,0,1,9,9V135a1,1,0,0,1-1,1H2a1,1,0,0,1-1-1V10A9,9,0,0,1,10,1Z" fill="none"/></g><g transform="translate(87.167 314.347)" fill="none" stroke="#afafc7" stroke-width="2"><path d="M0,0H289a0,0,0,0,1,0,0V2a16,16,0,0,1-16,16H18A18,18,0,0,1,0,0V0A0,0,0,0,1,0,0Z" stroke="none"/><path d="M1.593,1H287.407a.593.593,0,0,1,.593.593V3.37A13.63,13.63,0,0,1,274.37,17H16.407A15.407,15.407,0,0,1,1,1.593v0A.593.593,0,0,1,1.593,1Z" fill="none"/></g><g transform="translate(4.42 188.984) rotate(8)"><g transform="translate(0 0)" fill="#fff"><path d="M 47.63205718994141 30.75970458984375 L 0.9999966621398926 30.75970458984375 L 0.9999966621398926 1.000004172325134 L 25.5604362487793 1.000004172325134 L 47.63205718994141 1.000004172325134 L 47.63205718994141 30.75970458984375 Z" stroke="none"/><path d="M 1.999996185302734 2.000003814697266 L 1.999996185302734 29.75970458984375 L 46.63205718994141 29.75970458984375 L 46.63205718994141 2.000003814697266 L 25.5604362487793 2.000003814697266 L 1.999996185302734 2.000003814697266 M -3.814697265625e-06 3.814697265625e-06 L 25.5604362487793 3.814697265625e-06 L 48.63205718994141 3.814697265625e-06 L 48.63205718994141 31.75970458984375 L -3.814697265625e-06 31.75970458984375 L -3.814697265625e-06 3.814697265625e-06 Z" stroke="none" fill="#afafc7"/></g><path d="M0,0,21.572,15.014" transform="translate(2.983 1.332)" fill="#fff" stroke="#afafc7" stroke-linecap="round" stroke-width="2"/><path d="M21.086,0,0,14.978" transform="translate(24.628 1.332)" fill="#fff" stroke="#afafc7" stroke-linecap="round" stroke-width="2"/></g><g transform="translate(368.428 95.723) rotate(-16)"><g transform="translate(0 0)" fill="#fff"><path d="M 47.63205718994141 30.75970458984375 L 0.9999966621398926 30.75970458984375 L 0.9999966621398926 1.000004172325134 L 25.5604362487793 1.000004172325134 L 47.63205718994141 1.000004172325134 L 47.63205718994141 30.75970458984375 Z" stroke="none"/><path d="M 1.999996185302734 2.000003814697266 L 1.999996185302734 29.75970458984375 L 46.63205718994141 29.75970458984375 L 46.63205718994141 2.000003814697266 L 25.5604362487793 2.000003814697266 L 1.999996185302734 2.000003814697266 M -3.814697265625e-06 3.814697265625e-06 L 25.5604362487793 3.814697265625e-06 L 48.63205718994141 3.814697265625e-06 L 48.63205718994141 31.75970458984375 L -3.814697265625e-06 31.75970458984375 L -3.814697265625e-06 3.814697265625e-06 Z" stroke="none" fill="#afafc7"/></g><path d="M0,0,21.572,15.014" transform="translate(2.983 1.332)" fill="#fff" stroke="#afafc7" stroke-linecap="round" stroke-width="2"/><path d="M21.086,0,0,14.978" transform="translate(24.628 1.332)" fill="#fff" stroke="#afafc7" stroke-linecap="round" stroke-width="2"/></g><g transform="translate(288.154 30.783) rotate(16)"><g transform="translate(0 0)" fill="#fff"><path d="M 42.31100082397461 27.28473663330078 L 1.000000357627869 27.28473663330078 L 1.000000357627869 0.9999973773956299 L 22.76375007629395 0.9999973773956299 L 42.31100082397461 0.9999973773956299 L 42.31100082397461 27.28473663330078 Z" stroke="none"/><path d="M 2 1.999998092651367 L 2 26.28473663330078 L 41.31100082397461 26.28473663330078 L 41.31100082397461 1.999998092651367 L 22.76375007629395 1.999998092651367 L 2 1.999998092651367 M 0 -1.9073486328125e-06 L 22.76375007629395 -1.9073486328125e-06 L 43.31100082397461 -1.9073486328125e-06 L 43.31100082397461 28.28473663330078 L 0 28.28473663330078 L 0 -1.9073486328125e-06 Z" stroke="none" fill="#afafc7"/></g><path d="M0,0,19.212,13.371" transform="translate(2.657 1.186)" fill="#fff" stroke="#afafc7" stroke-linecap="round" stroke-width="2"/><path d="M18.779,0,0,13.339" transform="translate(21.934 1.186)" fill="#fff" stroke="#afafc7" stroke-linecap="round" stroke-width="2"/></g><g transform="translate(410.401 151.866) rotate(16)"><g transform="translate(0)" fill="#fff"><path d="M 59.65213394165039 65.22222137451172 L 1.000005006790161 65.22222137451172 L 1.000005006790161 27.0625114440918 L 30.02335166931152 1.330466747283936 L 59.65213394165039 27.0685977935791 L 59.65213394165039 65.22222137451172 Z" stroke="none"/><path d="M 30.03007507324219 2.660934448242188 L 1.999996185302734 27.5123405456543 L 1.999996185302734 64.22222137451172 L 58.65212631225586 64.22222137451172 L 58.65212631225586 27.5245361328125 L 30.03007507324219 2.660934448242188 M 30.01661491394043 0 L 60.65212631225586 26.6126708984375 L 60.65212631225586 66.22222137451172 L -3.814697265625e-06 66.22222137451172 L -3.814697265625e-06 26.6126708984375 L 30.01661491394043 0 Z" stroke="none" fill="#afafc7"/></g><line x2="40.569" y2="23.864" transform="translate(1.193 28.04)" fill="none" stroke="#afafc7" stroke-linecap="round" stroke-width="2"/><line x1="28.414" y2="18.154" transform="translate(30.426 27.187)" fill="none" stroke="#afafc7" stroke-linecap="round" stroke-width="2"/><g transform="translate(-464.979 37.516) rotate(-31)"><circle cx="11.932" cy="11.932" r="11.932" transform="translate(427.353 280.07) rotate(7)" fill="#afafc7"/><line x2="9.22" y2="2.471" transform="translate(436.019 288.898) rotate(45)" fill="none" stroke="#fbfbfe" stroke-linecap="round" stroke-width="2"/><line x2="9.221" y2="2.47" transform="translate(442.538 290.645) rotate(135)" fill="none" stroke="#fbfbfe" stroke-linecap="round" stroke-width="2"/></g></g><g transform="translate(19.099 94.445) rotate(-19)"><g transform="translate(0)" fill="#fff"><path d="M 35.84449768066406 39.22817993164063 L 0.9999988675117493 39.22817993164063 L 0.9999988675117493 16.61631011962891 L 18.24100494384766 1.330466270446777 L 35.84449768066406 16.62239837646484 L 35.84449768066406 39.22817993164063 Z" stroke="none"/><path d="M 18.24773025512695 2.660934448242188 L 2 17.06614112854004 L 2 38.22817993164063 L 34.84449768066406 38.22817993164063 L 34.84449768066406 17.07833480834961 L 18.24773025512695 2.660934448242188 M 18.23426818847656 0 L 36.84449768066406 16.16646957397461 L 36.84449768066406 40.22817993164063 L 0 40.22817993164063 L 0 16.16646957397461 L 18.23426818847656 0 Z" stroke="none" fill="#afafc7"/></g><line x2="23.864" y2="14.318" transform="translate(0 17.301)" fill="none" stroke="#afafc7" stroke-linecap="round" stroke-width="2"/><line x1="16.27" y2="10.758" transform="translate(18.422 17.063)" fill="none" stroke="#afafc7" stroke-linecap="round" stroke-width="2"/></g><g transform="translate(155.689 0) rotate(9)"><g transform="translate(0)" fill="#fff"><path d="M 45.85646057128906 50.15961456298828 L 1.000002145767212 50.15961456298828 L 1.000002145767212 21.00931549072266 L 23.19589805603027 1.330471515655518 L 45.85646057128906 21.01540374755859 L 45.85646057128906 50.15961456298828 Z" stroke="none"/><path d="M 23.20262336730957 2.660930633544922 L 2.000003814697266 21.45914649963379 L 2.000003814697266 49.15960693359375 L 44.85646057128906 49.15960693359375 L 44.85646057128906 21.47134017944336 L 23.20262336730957 2.660930633544922 M 23.18916130065918 -3.814697265625e-06 L 46.85646057128906 20.55947494506836 L 46.85646057128906 51.15960693359375 L 3.814697265625e-06 51.15960693359375 L 3.814697265625e-06 20.55947494506836 L 23.18916130065918 -3.814697265625e-06 Z" stroke="none" fill="#afafc7"/></g><line x2="30.349" y2="18.209" transform="translate(0 22.003)" fill="none" stroke="#afafc7" stroke-width="2"/><line x1="22.95" y2="15.3" transform="translate(23.428 20.081)" fill="none" stroke="#afafc7" stroke-width="2"/></g></g><g transform="translate(367.836 978.706)"><g transform="translate(0.271 5.158)" fill="#f4f4fa" stroke="#afafc7" stroke-width="2"><rect width="148" height="190.999" rx="6" stroke="none"/><rect x="1" y="1" width="146" height="188.999" rx="5" fill="none"/></g><g transform="translate(4.092 7)" opacity="0.87"><g transform="translate(9.107 33.158)"><rect width="47" height="6" fill="#afafc7" opacity="0.9"/><rect width="18" height="6" transform="translate(100)" fill="#afafc7" opacity="0.9"/><rect width="12" height="6" transform="translate(54)" fill="#fc676a"/><rect width="7" height="6" transform="translate(73)" fill="#f88227"/><rect width="7" height="6" transform="translate(86)" fill="#26cb6f"/></g></g><g transform="translate(4.092 19)" opacity="0.87"><g transform="translate(9.107 33.158)"><rect width="47" height="6" fill="#afafc7" opacity="0.9"/><rect width="18" height="6" transform="translate(100)" fill="#afafc7" opacity="0.9"/><rect width="12" height="6" transform="translate(54)" fill="#26cb6f"/><rect width="7" height="6" transform="translate(73)" fill="#f88227"/><rect width="7" height="6" transform="translate(86)" fill="#f88227"/></g></g><g transform="translate(4.092 31)" opacity="0.87"><g transform="translate(9.107 33.158)"><rect width="47" height="6" fill="#afafc7" opacity="0.9"/><rect width="18" height="6" transform="translate(100)" fill="#afafc7" opacity="0.9"/><rect width="12" height="6" transform="translate(54)" fill="#26cb6f"/><rect width="7" height="6" transform="translate(73)" fill="#26cb6f"/><rect width="7" height="6" transform="translate(86)" fill="#26cb6f"/></g></g><g transform="translate(4.092 43)" opacity="0.87"><g transform="translate(9.107 33.158)"><rect width="47" height="6" fill="#afafc7" opacity="0.9"/><rect width="18" height="6" transform="translate(100)" fill="#afafc7" opacity="0.9"/><rect width="12" height="6" transform="translate(54)" fill="#fc676a"/><rect width="7" height="6" transform="translate(73)" fill="#fc676a"/><rect width="7" height="6" transform="translate(86)" fill="#26cb6f"/></g></g><g transform="translate(4.092 55)" opacity="0.87"><g transform="translate(9.107 33.158)"><rect width="47" height="6" fill="#afafc7" opacity="0.9"/><rect width="18" height="6" transform="translate(100)" fill="#afafc7" opacity="0.9"/><rect width="12" height="6" transform="translate(54)" fill="#fc676a"/><rect width="7" height="6" transform="translate(73)" fill="#f88227"/><rect width="7" height="6" transform="translate(86)" fill="#fc676a"/></g></g><g transform="translate(4.092 67)" opacity="0.87"><g transform="translate(9.107 33.158)"><rect width="47" height="6" fill="#afafc7" opacity="0.9"/><rect width="18" height="6" transform="translate(100)" fill="#afafc7" opacity="0.9"/><rect width="12" height="6" transform="translate(54)" fill="#26cb6f"/><rect width="7" height="6" transform="translate(73)" fill="#f88227"/><rect width="7" height="6" transform="translate(86)" fill="#26cb6f"/></g></g><g transform="translate(4.092 79)" opacity="0.87"><g transform="translate(9.107 33.158)"><rect width="47" height="6" fill="#afafc7" opacity="0.9"/><rect width="18" height="6" transform="translate(100)" fill="#afafc7" opacity="0.9"/><rect width="12" height="6" transform="translate(54)" fill="#fc676a"/><rect width="7" height="6" transform="translate(73)" fill="#f88227"/><rect width="7" height="6" transform="translate(86)" fill="#26cb6f"/></g></g><g transform="translate(7.199 15.158)" fill="none" stroke="#afafc7" stroke-width="1"><rect width="133" height="109" stroke="none"/><rect x="0.5" y="0.5" width="132" height="108" fill="none"/></g><rect width="99" height="6" transform="translate(13.199 20.158)" fill="#afafc7"/><g transform="translate(124.56 24.384) rotate(-90)"><path d="M2.723,2.232.592.1A.347.347,0,0,0,.1.592L1.987,2.477.1,4.362a.347.347,0,0,0,.491.491l2.13-2.13a.347.347,0,0,0,0-.491Z" transform="translate(0 0)" fill="#afafc7" stroke="#afafc7" stroke-width="1"/></g><line x2="132" transform="translate(7.699 31.658)" fill="none" stroke="#afafc7" stroke-width="1"/><g transform="translate(7.199 128.158)" clip-path="url(#b)"><g transform="translate(-7.199 -128.158)"><g transform="translate(0 113)" opacity="0.6"><g transform="translate(7.199 15.158)" fill="none" stroke="#afafc7" stroke-width="1"><rect width="133" height="16" stroke="none"/><rect x="0.5" y="0.5" width="132" height="15" fill="none"/></g><rect width="99" height="6" transform="translate(13.199 20.158)" fill="#afafc7"/><g transform="translate(130.284 -76.018) rotate(90)"><path d="M100.707,3.568,97.915,6.36a.455.455,0,0,1-.643-.643l2.471-2.471L97.272.776a.455.455,0,0,1,.643-.643l2.792,2.792a.455.455,0,0,1,0,.643Z" transform="translate(0 0)" fill="#afafc7" stroke="#afafc7" stroke-width="1"/></g></g></g><g transform="translate(-7.199 -108.158)"><g transform="translate(0 113)" opacity="0.6"><g transform="translate(7.199 15.158)" fill="none" stroke="#afafc7" stroke-width="1"><rect width="133" height="16" stroke="none"/><rect x="0.5" y="0.5" width="132" height="15" fill="none"/></g><rect width="99" height="6" transform="translate(13.199 20.158)" fill="#afafc7"/><g transform="translate(130.284 -76.018) rotate(90)"><path d="M100.707,3.568,97.915,6.36a.455.455,0,0,1-.643-.643l2.471-2.471L97.272.776a.455.455,0,0,1,.643-.643l2.792,2.792a.455.455,0,0,1,0,.643Z" transform="translate(0 0)" fill="#afafc7" stroke="#afafc7" stroke-width="1"/></g></g></g><g transform="translate(-7.199 -88.158)"><g transform="translate(0 113)" opacity="0.6"><g transform="translate(7.199 15.158)" fill="none" stroke="#afafc7" stroke-width="1"><rect width="133" height="16" stroke="none"/><rect x="0.5" y="0.5" width="132" height="15" fill="none"/></g><rect width="99" height="6" transform="translate(13.199 20.158)" fill="#afafc7"/><g transform="translate(130.284 -76.018) rotate(90)"><path d="M100.707,3.568,97.915,6.36a.455.455,0,0,1-.643-.643l2.471-2.471L97.272.776a.455.455,0,0,1,.643-.643l2.792,2.792a.455.455,0,0,1,0,.643Z" transform="translate(0 0)" fill="#afafc7" stroke="#afafc7" stroke-width="1"/></g></g></g></g></g><g transform="translate(244.997 1092.75)"><circle cx="9.546" cy="9.546" r="9.546" transform="translate(2.327 0) rotate(7)" fill="#26cb6f"/><path d="M3.425,5.646a1.413,1.413,0,0,1-1-.417l-2.006-2A1.418,1.418,0,0,1,2.421,1.218l1,1L5.231.415A1.419,1.419,0,0,1,7.237,2.422L4.428,5.229c-.017.018-.035.035-.053.052a1.417,1.417,0,0,1-.95.365Z" transform="translate(7.896 7.357) rotate(14)" fill="#fff"/></g><g transform="matrix(0.966, -0.259, 0.259, 0.966, 388.176, 926.433)"><circle cx="9.546" cy="9.546" r="9.546" transform="translate(2.327 0) rotate(7)" fill="#26cb6f"/><path d="M3.425,5.646a1.413,1.413,0,0,1-1-.417l-2.006-2A1.418,1.418,0,0,1,2.421,1.218l1,1L5.231.415A1.419,1.419,0,0,1,7.237,2.422L4.428,5.229c-.017.018-.035.035-.053.052a1.417,1.417,0,0,1-.95.365Z" transform="translate(7.896 7.357) rotate(14)" fill="#fff"/></g><g transform="matrix(0.966, -0.259, 0.259, 0.966, 522.22, 911.427)"><circle cx="11.932" cy="11.932" r="11.932" transform="translate(2.908) rotate(7)" fill="#afafc7"/><g transform="translate(11.841 8.197)"><line x1="1.235" y2="4.61" transform="translate(1.544)" fill="none" stroke="#f4f4fa" stroke-linecap="round" stroke-width="3"/><line transform="translate(0 10.373)" fill="none" stroke="#f4f4fa" stroke-linecap="round" stroke-width="3"/></g></g><g transform="matrix(0.966, -0.259, 0.259, 0.966, 214.376, 980.632)"><circle cx="11.932" cy="11.932" r="11.932" transform="translate(2.908) rotate(7)" fill="#afafc7"/><g transform="translate(10.503 12.273)"><line x1="6.915" y1="1.616" fill="none" stroke="#f4f4fa" stroke-linecap="round" stroke-width="3"/></g></g><g transform="matrix(0.966, -0.259, 0.259, 0.966, 165.035, 939.279)"><path d="M23.083,12.707s-33.691,43.7-20.609,61.9,56.017,4.716,80.344,14.153,3.815,33.33,3.815,33.33" transform="translate(0 162.826)" fill="none" stroke="#afafc7" stroke-width="1" stroke-dasharray="3"/><path d="M32.438,0S-10.607,56.407,2.475,74.605s48.933,7.08,73.26,16.517" transform="translate(281.013 308.812) rotate(-70)" fill="none" stroke="#afafc7" stroke-width="1" stroke-dasharray="3"/><path d="M0,0S-.831,61.546,74.574,26.306s3.815,33.33,3.815,33.33" transform="translate(332.648 196.252) rotate(-70)" fill="none" stroke="#afafc7" stroke-width="1" stroke-dasharray="3"/><path d="M0,1.948S64.888-15.309,112.57,52.912s19.969-26.957,19.969-26.957" transform="translate(111.812 198.073) rotate(-110)" fill="none" stroke="#afafc7" stroke-width="1" stroke-dasharray="3"/><path d="M0,3.2S19.1-18.261,66.778,49.96,86.747,23,86.747,23" transform="translate(246.621 114.55) rotate(-110)" fill="none" stroke="#afafc7" stroke-width="1" stroke-dasharray="3"/><path d="M0,16.822s29.715,55.421,65.634,8.072S100.51,8.028,100.51,8.028" transform="translate(294.065 185.107) rotate(-70)" fill="none" stroke="#afafc7" stroke-width="1" stroke-dasharray="3"/></g><g transform="translate(620.108 987.269) rotate(-39)"><circle cx="9.546" cy="9.546" r="9.546" transform="translate(2.327 0) rotate(7)" fill="#26cb6f"/><path d="M3.425,5.646a1.413,1.413,0,0,1-1-.417l-2.006-2A1.418,1.418,0,0,1,2.421,1.218l1,1L5.231.415A1.419,1.419,0,0,1,7.237,2.422L4.428,5.229c-.017.018-.035.035-.053.052a1.417,1.417,0,0,1-.95.365Z" transform="translate(7.896 7.357) rotate(14)" fill="#fff"/></g></g></svg>