<svg xmlns="http://www.w3.org/2000/svg" xmlns:xlink="http://www.w3.org/1999/xlink" width="557" height="455" viewBox="0 0 557 455"><defs><clipPath id="a"><rect width="557" height="455" opacity="0.09" fill="#fff" stroke="#707070" stroke-width="1" transform="translate(731 1202)"/></clipPath><clipPath id="b"><path d="M447.607,1034.865l93.609,73.64V959.785Z" transform="translate(-2 -2)" fill="none" stroke="#707070" stroke-width="1"/></clipPath><linearGradient id="c" x1="0.5" x2="0.5" y2="1" gradientUnits="objectBoundingBox"><stop offset="0" stop-color="#f58536"/><stop offset="1" stop-color="#d16929"/></linearGradient></defs><g transform="translate(-731 -1202)" clip-path="url(#a)"><g transform="translate(15 -22)"><g transform="translate(542.893 326.136)"><g transform="translate(177.346 999.681)" opacity="0.6"><rect width="448" height="52" rx="26" transform="translate(64.762 0.183)" fill="#f4f4fa"/><rect width="478" height="54" rx="27" transform="translate(70.762 52.183)" fill="#f4f4fa"/><rect width="479" height="51" rx="25.5" transform="translate(-0.238 106.183)" fill="#f4f4fa"/><rect width="449" height="54" rx="27" transform="translate(55.762 157.183)" fill="#f4f4fa"/></g><g transform="translate(215.941 879.517)"><g transform="translate(114.167 163.347)" fill="none" stroke="#afafc7" stroke-width="2"><path d="M10,0H224a10,10,0,0,1,10,10V153a0,0,0,0,1,0,0H0a0,0,0,0,1,0,0V10A10,10,0,0,1,10,0Z" stroke="none"/><path d="M10,1H224a9,9,0,0,1,9,9V151a1,1,0,0,1-1,1H2a1,1,0,0,1-1-1V10A9,9,0,0,1,10,1Z" fill="none"/></g><g transform="translate(132.167 179.347)" fill="none" stroke="#afafc7" stroke-width="2"><path d="M10,0H187a10,10,0,0,1,10,10V137a0,0,0,0,1,0,0H0a0,0,0,0,1,0,0V10A10,10,0,0,1,10,0Z" stroke="none"/><path d="M10,1H187a9,9,0,0,1,9,9V135a1,1,0,0,1-1,1H2a1,1,0,0,1-1-1V10A9,9,0,0,1,10,1Z" fill="none"/></g><g transform="translate(87.167 314.347)" fill="none" stroke="#afafc7" stroke-width="2"><path d="M0,0H289a0,0,0,0,1,0,0V2a16,16,0,0,1-16,16H18A18,18,0,0,1,0,0V0A0,0,0,0,1,0,0Z" stroke="none"/><path d="M1.593,1H287.407a.593.593,0,0,1,.593.593V3.37A13.63,13.63,0,0,1,274.37,17H16.407A15.407,15.407,0,0,1,1,1.593v0A.593.593,0,0,1,1.593,1Z" fill="none"/></g></g><g transform="matrix(0.966, -0.259, 0.259, 0.966, 169.035, 939.279)"><path d="M3.425,5.646a1.413,1.413,0,0,1-1-.417l-2.006-2A1.418,1.418,0,0,1,2.421,1.218l1,1L5.231.415A1.419,1.419,0,0,1,7.237,2.422L4.428,5.229c-.017.018-.035.035-.053.052a1.417,1.417,0,0,1-.95.365Z" transform="translate(434.919 290.065) rotate(14)" fill="#fff"/><path d="M.58,66.722s-11.187-10.315,1.9,7.883,6.7,67.559,55.31,50.257,83.549-3.391,83.549-3.391" transform="translate(0 162.826)" fill="none" stroke="#afafc7" stroke-width="1" stroke-dasharray="3"/><path d="M32.438,0s-14.761,35.813-48.1,32.85S-32.824,114-32.824,114" transform="translate(227.572 342.116) rotate(-70)" fill="none" stroke="#afafc7" stroke-width="1" stroke-dasharray="3"/><path d="M0,0S-6.935,22.049,16.864,30.494,24.113,71.6,24.113,71.6" transform="translate(199.63 305.979) rotate(25)" fill="none" stroke="#afafc7" stroke-width="1" stroke-dasharray="3"/><path d="M-114.523,26.565s18.966-56.453-13.97-64.318,7.989-65.034,7.989-65.034" transform="translate(111.812 198.073) rotate(-110)" fill="none" stroke="#afafc7" stroke-width="1" stroke-dasharray="3"/><path d="M0,16.822s29.715,55.421,65.634,8.072,49.32-12.6,49.32-12.6" transform="translate(280.71 306.438) rotate(17)" fill="none" stroke="#afafc7" stroke-width="1" stroke-dasharray="3"/></g><path d="M-10444.964-9521.136a75.534,75.534,0,0,1-29.583-5.973,75.968,75.968,0,0,1-12.911-7.007,76.6,76.6,0,0,1-11.248-9.28,76.6,76.6,0,0,1-9.28-11.248,76.045,76.045,0,0,1-7.007-12.91,75.521,75.521,0,0,1-5.973-29.581,75.534,75.534,0,0,1,5.973-29.583,76.128,76.128,0,0,1,7.007-12.911,76.6,76.6,0,0,1,9.28-11.248,76.659,76.659,0,0,1,11.248-9.28,76.128,76.128,0,0,1,12.911-7.007,75.534,75.534,0,0,1,29.583-5.973,75.521,75.521,0,0,1,29.581,5.973,76.045,76.045,0,0,1,12.91,7.007,76.659,76.659,0,0,1,11.248,9.28,76.6,76.6,0,0,1,9.28,11.248,75.968,75.968,0,0,1,7.007,12.911,75.534,75.534,0,0,1,5.973,29.583,75.521,75.521,0,0,1-5.973,29.581,76.022,76.022,0,0,1-7.007,12.91,76.6,76.6,0,0,1-9.28,11.248,76.6,76.6,0,0,1-11.248,9.28,76.022,76.022,0,0,1-12.91,7.007A75.521,75.521,0,0,1-10444.964-9521.136Zm0-105a29.034,29.034,0,0,0-29,29,29.034,29.034,0,0,0,29,29,29.033,29.033,0,0,0,29-29A29.034,29.034,0,0,0-10444.964-9626.137Z" transform="translate(10893 10651)" fill="#26cb6f"/><g transform="translate(0.5 20.079)" clip-path="url(#b)"><path d="M-10444.964-9521.136a75.534,75.534,0,0,1-29.583-5.973,75.968,75.968,0,0,1-12.911-7.007,76.6,76.6,0,0,1-11.248-9.28,76.6,76.6,0,0,1-9.28-11.248,76.045,76.045,0,0,1-7.007-12.91,75.521,75.521,0,0,1-5.973-29.581,75.534,75.534,0,0,1,5.973-29.583,76.128,76.128,0,0,1,7.007-12.911,76.6,76.6,0,0,1,9.28-11.248,76.659,76.659,0,0,1,11.248-9.28,76.128,76.128,0,0,1,12.911-7.007,75.534,75.534,0,0,1,29.583-5.973,75.521,75.521,0,0,1,29.581,5.973,76.045,76.045,0,0,1,12.91,7.007,76.659,76.659,0,0,1,11.248,9.28,76.6,76.6,0,0,1,9.28,11.248,75.968,75.968,0,0,1,7.007,12.911,75.534,75.534,0,0,1,5.973,29.583,75.521,75.521,0,0,1-5.973,29.581,76.022,76.022,0,0,1-7.007,12.91,76.6,76.6,0,0,1-9.28,11.248,76.6,76.6,0,0,1-11.248,9.28,76.022,76.022,0,0,1-12.91,7.007A75.521,75.521,0,0,1-10444.964-9521.136Zm0-105a29.034,29.034,0,0,0-29,29,29.034,29.034,0,0,0,29,29,29.033,29.033,0,0,0,29-29A29.034,29.034,0,0,0-10444.964-9626.137Z" transform="translate(10893 10631)" fill="#fc676a"/></g><path d="M4.48-9.38A3.772,3.772,0,0,1,8.05-7.42l-.966.784a3.01,3.01,0,0,0-1-1.309A2.848,2.848,0,0,0,4.494-8.33a2.8,2.8,0,0,0-1.673.441,1.339,1.339,0,0,0-.609,1.127,1.141,1.141,0,0,0,.238.742,1.886,1.886,0,0,0,.791.511,8.13,8.13,0,0,0,1.533.385,5.78,5.78,0,0,1,2.6.924,2.074,2.074,0,0,1,.763,1.708,2.254,2.254,0,0,1-.441,1.379A2.839,2.839,0,0,1,6.44-.189,4.968,4.968,0,0,1,4.564.14,4.865,4.865,0,0,1,2.177-.406,3.8,3.8,0,0,1,.672-1.862l.966-.784A2.871,2.871,0,0,0,2.751-1.365,3.44,3.44,0,0,0,4.592-.91a3.274,3.274,0,0,0,1.736-.4,1.256,1.256,0,0,0,.644-1.127,1.118,1.118,0,0,0-.56-.98,5.783,5.783,0,0,0-1.988-.616,6.1,6.1,0,0,1-2.618-.924,2.012,2.012,0,0,1-.77-1.68,2.424,2.424,0,0,1,.42-1.372,2.889,2.889,0,0,1,1.2-1A4.211,4.211,0,0,1,4.48-9.38Zm9.59,2.24a2.955,2.955,0,0,1,2.331.973A3.883,3.883,0,0,1,17.262-3.5,3.883,3.883,0,0,1,16.4-.833,2.955,2.955,0,0,1,14.07.14,2.807,2.807,0,0,1,12.691-.2a2.463,2.463,0,0,1-.945-.9V2.94h-1.12V-7h.98l.07,1.218a2.344,2.344,0,0,1,.945-.987A2.826,2.826,0,0,1,14.07-7.14Zm-.126,6.3a1.966,1.966,0,0,0,1.61-.721A2.977,2.977,0,0,0,16.142-3.5a2.977,2.977,0,0,0-.588-1.939,1.966,1.966,0,0,0-1.61-.721,2,2,0,0,0-1.6.7,2.8,2.8,0,0,0-.6,1.876v.168a2.8,2.8,0,0,0,.6,1.876A2,2,0,0,0,13.944-.84Zm11.662.028a2.3,2.3,0,0,0,.56-.07L26.1,0a2.479,2.479,0,0,1-.84.14A1.4,1.4,0,0,1,24.4-.1,1.168,1.168,0,0,1,24-.9a2.1,2.1,0,0,1-.945.763A3.227,3.227,0,0,1,21.742.14a2.854,2.854,0,0,1-1.708-.483,1.61,1.61,0,0,1-.672-1.393,1.743,1.743,0,0,1,.7-1.379,4.253,4.253,0,0,1,2.03-.8l1.862-.308V-4.62a1.487,1.487,0,0,0-.434-1.12,1.659,1.659,0,0,0-1.2-.42,2.154,2.154,0,0,0-1.211.336,2.16,2.16,0,0,0-.791.994l-.826-.6a2.359,2.359,0,0,1,1.043-1.246,3.379,3.379,0,0,1,1.785-.462,3.12,3.12,0,0,1,2,.6,2.136,2.136,0,0,1,.756,1.778v3.444a.513.513,0,0,0,.126.378A.557.557,0,0,0,25.606-.812ZM21.8-.84a2.7,2.7,0,0,0,1.519-.42,1.263,1.263,0,0,0,.637-1.092v-.966l-1.568.294a3.7,3.7,0,0,0-1.4.483.943.943,0,0,0-.462.805.758.758,0,0,0,.336.665A1.64,1.64,0,0,0,21.8-.84Zm14.546-6.3a3.032,3.032,0,0,1,1.309.287,2.318,2.318,0,0,1,.987.889,2.739,2.739,0,0,1,.378,1.484V0H37.9V-4.368a1.8,1.8,0,0,0-.455-1.351,1.647,1.647,0,0,0-1.2-.441,2.009,2.009,0,0,0-1.029.273,2.015,2.015,0,0,0-.756.8,2.575,2.575,0,0,0-.287,1.253V0h-1.12V-4.368A1.8,1.8,0,0,0,32.6-5.719a1.647,1.647,0,0,0-1.2-.441,2.026,2.026,0,0,0-.98.259,2.006,2.006,0,0,0-.784.805,2.732,2.732,0,0,0-.308,1.358V0H28.21V-7h.98l.07,1.092a2.368,2.368,0,0,1,.959-.924A2.746,2.746,0,0,1,31.5-7.14a2.953,2.953,0,0,1,1.421.35,2.3,2.3,0,0,1,.987,1.022A2.1,2.1,0,0,1,34.916-6.79,3.161,3.161,0,0,1,36.344-7.14Z" transform="translate(554.107 974.864)" fill="#333348" stroke="rgba(0,0,0,0)" stroke-width="1"/><path d="M5.11-9.24V0H2.786V-6.874A4.44,4.44,0,0,1,.6-5.7L.378-7.686a4.433,4.433,0,0,0,1.589-.567A3.567,3.567,0,0,0,3.192-9.24ZM11.3-5.964a3.171,3.171,0,0,1,1.547.357,2.474,2.474,0,0,1,1,.994,2.959,2.959,0,0,1,.35,1.449A3.33,3.33,0,0,1,13.72-1.33,2.913,2.913,0,0,1,12.432-.224,4.437,4.437,0,0,1,10.6.14,4.815,4.815,0,0,1,8.456-.294a3.552,3.552,0,0,1-1.47-1.414L9.1-2.912a1.74,1.74,0,0,0,.476.924,1.494,1.494,0,0,0,1.036.308,1.5,1.5,0,0,0,1.036-.336A1.242,1.242,0,0,0,12.026-3a1.32,1.32,0,0,0-.364-.966,1.463,1.463,0,0,0-1.05-.336,1.823,1.823,0,0,0-1.47.546l-1.82-.266L7.91-9.24h5.768v1.862H9.66L9.45-5.642q-.042.238-.07.336h.014a1.859,1.859,0,0,1,.784-.483A3.4,3.4,0,0,1,11.3-5.964Zm5.88,3.556a1.477,1.477,0,0,1,1.029.336,1.2,1.2,0,0,1,.371.938,1.184,1.184,0,0,1-.371.924,1.477,1.477,0,0,1-1.029.336A1.477,1.477,0,0,1,16.149-.21a1.184,1.184,0,0,1-.371-.924,1.2,1.2,0,0,1,.371-.938A1.477,1.477,0,0,1,17.178-2.408ZM24.36-5.964a3.171,3.171,0,0,1,1.547.357,2.474,2.474,0,0,1,1,.994,2.959,2.959,0,0,1,.35,1.449,3.33,3.33,0,0,1-.476,1.834A2.913,2.913,0,0,1,25.494-.224,4.437,4.437,0,0,1,23.66.14a4.815,4.815,0,0,1-2.142-.434,3.552,3.552,0,0,1-1.47-1.414l2.114-1.2a1.74,1.74,0,0,0,.476.924,1.494,1.494,0,0,0,1.036.308,1.5,1.5,0,0,0,1.036-.336A1.242,1.242,0,0,0,25.088-3a1.32,1.32,0,0,0-.364-.966,1.463,1.463,0,0,0-1.05-.336,1.823,1.823,0,0,0-1.47.546l-1.82-.266.588-5.222H26.74v1.862H22.722l-.21,1.736q-.042.238-.07.336h.014a1.859,1.859,0,0,1,.784-.483A3.4,3.4,0,0,1,24.36-5.964ZM31.234-9.38a2.541,2.541,0,0,1,1.89.721,2.6,2.6,0,0,1,.714,1.911,2.6,2.6,0,0,1-.714,1.911,2.541,2.541,0,0,1-1.89.721,2.541,2.541,0,0,1-1.89-.721,2.6,2.6,0,0,1-.714-1.911,2.6,2.6,0,0,1,.714-1.911A2.541,2.541,0,0,1,31.234-9.38Zm5.852.126h1.82L32.48,0H30.66Zm-5.852,1.47a.734.734,0,0,0-.609.273,1.2,1.2,0,0,0-.217.763,1.2,1.2,0,0,0,.217.763.734.734,0,0,0,.609.273.749.749,0,0,0,.623-.273,1.2,1.2,0,0,0,.217-.763,1.2,1.2,0,0,0-.217-.763A.749.749,0,0,0,31.234-7.784Zm7.07,2.66a2.541,2.541,0,0,1,1.89.721,2.6,2.6,0,0,1,.714,1.911,2.6,2.6,0,0,1-.714,1.911A2.541,2.541,0,0,1,38.3.14a2.541,2.541,0,0,1-1.89-.721A2.6,2.6,0,0,1,35.7-2.492,2.6,2.6,0,0,1,36.414-4.4,2.541,2.541,0,0,1,38.3-5.124Zm0,1.6a.749.749,0,0,0-.623.273,1.2,1.2,0,0,0-.217.763,1.2,1.2,0,0,0,.217.763.749.749,0,0,0,.623.273.749.749,0,0,0,.623-.273,1.2,1.2,0,0,0,.217-.763,1.2,1.2,0,0,0-.217-.763A.749.749,0,0,0,38.3-3.528Z" transform="translate(552.107 1004.864)" fill="#fc676a" stroke="rgba(0,0,0,0)" stroke-width="1"/><path d="M2.632,0H1.512V-9.24h1.12ZM9.2-7.14a2.836,2.836,0,0,1,1.96.686,2.505,2.505,0,0,1,.77,1.974V0h-1.12V-4.088a2.234,2.234,0,0,0-.469-1.582,1.654,1.654,0,0,0-1.253-.49,2.316,2.316,0,0,0-1.05.245,1.918,1.918,0,0,0-.805.8,2.784,2.784,0,0,0-.315,1.393V0H5.8V-7h.98l.07,1.092a2.188,2.188,0,0,1,.966-.931A3.116,3.116,0,0,1,9.2-7.14Zm9.128,0a2.955,2.955,0,0,1,2.331.973A3.883,3.883,0,0,1,21.518-3.5a3.883,3.883,0,0,1-.861,2.667A2.955,2.955,0,0,1,18.326.14a2.826,2.826,0,0,1-1.449-.371,2.344,2.344,0,0,1-.945-.987L15.862,0h-.98V-10.22H16v4.312a2.463,2.463,0,0,1,.945-.9A2.807,2.807,0,0,1,18.326-7.14ZM18.2-.84a1.966,1.966,0,0,0,1.61-.721A2.977,2.977,0,0,0,20.4-3.5a2.977,2.977,0,0,0-.588-1.939A1.966,1.966,0,0,0,18.2-6.16a2,2,0,0,0-1.6.7A2.8,2.8,0,0,0,16-3.584v.168A2.8,2.8,0,0,0,16.6-1.54,2,2,0,0,0,18.2-.84Zm8.876-6.3a3.236,3.236,0,0,1,2.485.966,3.763,3.763,0,0,1,.9,2.674,3.763,3.763,0,0,1-.9,2.674A3.236,3.236,0,0,1,27.076.14a3.236,3.236,0,0,1-2.485-.966,3.763,3.763,0,0,1-.9-2.674,3.763,3.763,0,0,1,.9-2.674A3.236,3.236,0,0,1,27.076-7.14Zm0,.966a2.062,2.062,0,0,0-1.666.714,2.947,2.947,0,0,0-.6,1.96,2.947,2.947,0,0,0,.6,1.96,2.062,2.062,0,0,0,1.666.714,2.062,2.062,0,0,0,1.666-.714,2.947,2.947,0,0,0,.6-1.96,2.947,2.947,0,0,0-.6-1.96A2.062,2.062,0,0,0,27.076-6.174ZM37.086,0,35.154-2.7,33.166,0h-1.3l2.688-3.528L32.032-7h1.4L35.28-4.41,37.1-7h1.316L35.882-3.57,38.458,0Z" transform="translate(287.107 974.864)" fill="#333348" stroke="rgba(0,0,0,0)" stroke-width="1"/><path d="M8.19-9.24v1.708A9.342,9.342,0,0,0,5.852-4.1,11.636,11.636,0,0,0,5.166,0H2.786a10.353,10.353,0,0,1,.735-3.927A10.567,10.567,0,0,1,5.838-7.35H.588V-9.24Zm5.39,3.276a3.171,3.171,0,0,1,1.547.357,2.474,2.474,0,0,1,1,.994,2.959,2.959,0,0,1,.35,1.449A3.33,3.33,0,0,1,16-1.33,2.913,2.913,0,0,1,14.714-.224,4.437,4.437,0,0,1,12.88.14a4.815,4.815,0,0,1-2.142-.434,3.552,3.552,0,0,1-1.47-1.414l2.114-1.2a1.74,1.74,0,0,0,.476.924,1.494,1.494,0,0,0,1.036.308,1.5,1.5,0,0,0,1.036-.336A1.242,1.242,0,0,0,14.308-3a1.32,1.32,0,0,0-.364-.966,1.463,1.463,0,0,0-1.05-.336,1.823,1.823,0,0,0-1.47.546L9.6-4.018l.588-5.222H15.96v1.862H11.942l-.21,1.736q-.042.238-.07.336h.014a1.859,1.859,0,0,1,.784-.483A3.4,3.4,0,0,1,13.58-5.964Zm5.88,3.556a1.477,1.477,0,0,1,1.029.336,1.2,1.2,0,0,1,.371.938,1.184,1.184,0,0,1-.371.924A1.477,1.477,0,0,1,19.46.126,1.477,1.477,0,0,1,18.431-.21a1.184,1.184,0,0,1-.371-.924,1.2,1.2,0,0,1,.371-.938A1.477,1.477,0,0,1,19.46-2.408Zm7.182-3.556a3.171,3.171,0,0,1,1.547.357,2.474,2.474,0,0,1,1,.994,2.959,2.959,0,0,1,.35,1.449,3.33,3.33,0,0,1-.476,1.834A2.913,2.913,0,0,1,27.776-.224,4.437,4.437,0,0,1,25.942.14,4.815,4.815,0,0,1,23.8-.294a3.552,3.552,0,0,1-1.47-1.414l2.114-1.2a1.74,1.74,0,0,0,.476.924,1.494,1.494,0,0,0,1.036.308,1.5,1.5,0,0,0,1.036-.336A1.242,1.242,0,0,0,27.37-3a1.32,1.32,0,0,0-.364-.966,1.463,1.463,0,0,0-1.05-.336,1.823,1.823,0,0,0-1.47.546l-1.82-.266.588-5.222h5.768v1.862H25l-.21,1.736q-.042.238-.07.336h.014a1.859,1.859,0,0,1,.784-.483A3.4,3.4,0,0,1,26.642-5.964ZM33.516-9.38a2.541,2.541,0,0,1,1.89.721,2.6,2.6,0,0,1,.714,1.911,2.6,2.6,0,0,1-.714,1.911,2.541,2.541,0,0,1-1.89.721,2.541,2.541,0,0,1-1.89-.721,2.6,2.6,0,0,1-.714-1.911,2.6,2.6,0,0,1,.714-1.911A2.541,2.541,0,0,1,33.516-9.38Zm5.852.126h1.82L34.762,0h-1.82Zm-5.852,1.47a.734.734,0,0,0-.609.273,1.2,1.2,0,0,0-.217.763,1.2,1.2,0,0,0,.217.763.734.734,0,0,0,.609.273.749.749,0,0,0,.623-.273,1.2,1.2,0,0,0,.217-.763,1.2,1.2,0,0,0-.217-.763A.749.749,0,0,0,33.516-7.784Zm7.07,2.66a2.541,2.541,0,0,1,1.89.721,2.6,2.6,0,0,1,.714,1.911,2.6,2.6,0,0,1-.714,1.911,2.541,2.541,0,0,1-1.89.721A2.541,2.541,0,0,1,38.7-.581a2.6,2.6,0,0,1-.714-1.911A2.6,2.6,0,0,1,38.7-4.4,2.541,2.541,0,0,1,40.586-5.124Zm0,1.6a.749.749,0,0,0-.623.273,1.2,1.2,0,0,0-.217.763,1.2,1.2,0,0,0,.217.763.749.749,0,0,0,.623.273.749.749,0,0,0,.623-.273,1.2,1.2,0,0,0,.217-.763,1.2,1.2,0,0,0-.217-.763A.749.749,0,0,0,40.586-3.528Z" transform="translate(284.107 1004.864)" fill="#26cb6f" stroke="rgba(0,0,0,0)" stroke-width="1"/><g transform="translate(278.107 989.864)" fill="none" stroke="#26cb6f" stroke-width="1"><rect width="56" height="21" stroke="none"/><rect x="0.5" y="0.5" width="55" height="20" fill="none"/></g><g transform="translate(546.107 989.864)" fill="none" stroke="#fc676a" stroke-width="1"><rect width="56" height="21" stroke="none"/><rect x="0.5" y="0.5" width="55" height="20" fill="none"/></g></g><g transform="translate(822 1554)" fill="#f4f4fa" stroke="#afafc7" stroke-width="1"><circle cx="31" cy="31" r="31" stroke="none"/><circle cx="31" cy="31" r="30.5" fill="none"/></g><g transform="translate(962 1568)" fill="#f4f4fa" stroke="#afafc7" stroke-width="1"><circle cx="31" cy="31" r="31" stroke="none"/><circle cx="31" cy="31" r="30.5" fill="none"/></g><g transform="translate(1102 1554)" fill="#f4f4fa" stroke="#afafc7" stroke-width="1"><circle cx="31" cy="31" r="31" stroke="none"/><circle cx="31" cy="31" r="30.5" fill="none"/></g><g transform="translate(1182 1470)" fill="#f4f4fa" stroke="#afafc7" stroke-width="1"><circle cx="31" cy="31" r="31" stroke="none"/><circle cx="31" cy="31" r="30.5" fill="none"/></g><g transform="translate(742 1470)" fill="#f4f4fa" stroke="#afafc7" stroke-width="1"><circle cx="31" cy="31" r="31" stroke="none"/><circle cx="31" cy="31" r="30.5" fill="none"/></g><g transform="translate(915 1470)" fill="none" stroke="#26cb6f" stroke-width="2"><rect width="18" height="31" stroke="none"/><rect x="1" y="1" width="16" height="29" fill="none"/></g><g transform="translate(1014 1477)" fill="none" stroke="#26cb6f" stroke-width="2"><rect width="18" height="24" stroke="none"/><rect x="1" y="1" width="16" height="22" fill="none"/></g><g transform="translate(1047 1464)" fill="none" stroke="#26cb6f" stroke-width="2"><rect width="18" height="37" stroke="none"/><rect x="1" y="1" width="16" height="35" fill="none"/></g><g transform="translate(949 1477)" fill="none" stroke="#f88227" stroke-width="2"><rect width="18" height="24" stroke="none"/><rect x="1" y="1" width="16" height="22" fill="none"/></g><g transform="translate(981 1489)" fill="none" stroke="#fc676a" stroke-width="2"><rect width="18" height="12" stroke="none"/><rect x="1" y="1" width="16" height="10" fill="none"/></g><g transform="translate(761 1429)"><rect width="17" height="17" transform="translate(3.023 64.018)" fill="#eceff1"/><path d="M256,155.321l8.643,6.825V148.672Z" transform="translate(-244.477 -80.861)" fill="#cfd8dc"/><path d="M20.886,64h-.72l-8.643,6.825L2.881,64h-.72A2.161,2.161,0,0,0,0,66.161V79.124a2.161,2.161,0,0,0,2.161,2.161h.72V67.811l8.643,6.648,8.643-6.649V81.285h.72a2.161,2.161,0,0,0,2.161-2.161V66.161A2.161,2.161,0,0,0,20.886,64Z" fill="#f44336"/></g><path d="M20.067,20.24h-8a.287.287,0,0,0-.286.315l.156,1.618a.287.287,0,0,0,.27.259l1.672.092-3.209,4.453L7.167,20l2.527-.1a.287.287,0,0,0,.276-.283l.018-1.447a.287.287,0,0,0-.287-.291H.287A.287.287,0,0,0,0,18.173v1.612a.287.287,0,0,0,.283.287l2.66.038L8,29.035l-.023,5.574-3.517.144a.287.287,0,0,0-.275.281l-.028,1.491a.287.287,0,0,0,.287.292h11a.287.287,0,0,0,.287-.3l-.077-1.476a.287.287,0,0,0-.272-.272l-3.026-.159-.441-5.429,5.432-6.546,2.212-.1a.287.287,0,0,0,.262-.2l.513-1.71a.287.287,0,0,0-.272-.38Z" transform="translate(843 1557.787)" fill="#7f40bd"/><g transform="translate(978.2 1569.939)"><path d="M270.3,112.011H256.953a.953.953,0,1,0,0,1.907h10.569l-5.858,4.555-4.2-2.671-1.022,1.609,4.767,3.032a.954.954,0,0,0,1.1-.051l7.042-5.478v12.352H256.953a.953.953,0,1,0,0,1.907H270.3a.954.954,0,0,0,.953-.953V112.964A.954.954,0,0,0,270.3,112.011Z" transform="translate(-240.746 -90.3)" fill="#1976d2"/><path d="M16.816,16.21a.937.937,0,0,0-.784-.2L.778,18.868A.951.951,0,0,0,0,19.8V40.779a.952.952,0,0,0,.778.936l15.254,2.86a.9.9,0,0,0,.175.017.953.953,0,0,0,.953-.953v-26.7A.951.951,0,0,0,16.816,16.21Z" transform="translate(0 0)" fill="#2196f3"/><path d="M68.767,187.452c-2.628,0-4.767-2.567-4.767-5.72s2.139-5.72,4.767-5.72,4.767,2.567,4.767,5.72S71.395,187.452,68.767,187.452Zm0-9.534c-1.577,0-2.86,1.71-2.86,3.814s1.283,3.814,2.86,3.814,2.86-1.71,2.86-3.814S70.344,177.918,68.767,177.918Z" transform="translate(-60.186 -150.486)" fill="#fafafa"/></g><g transform="translate(1118.793 1568.763)"><path d="M0,8.118,14.207,0,28.414,8.118V24.355L14.207,32.473,0,24.355Z" fill-rule="evenodd" fill="url(#c)"/><path d="M28.212,26.54V30l-8.486,3.771L11.241,30V26.54h-1.5v12.7H29.671V26.54Zm0,11.235H11.279V31.7l8.486,3.771L28.251,31.7v6.079Z" transform="translate(-5.788 -15.767)" fill="#fff" fill-rule="evenodd"/><path d="M19.783,13.175,9.838,17.638V19.6h1.5v-.962l8.443-3.809,8.486,3.809V19.6h1.5V17.638ZM14.33,23.448V21.019h10.9v2.424l1.536-.692V19.485H12.833v3.27l1.5.692Z" transform="translate(-5.845 -7.827)" fill="#fff" fill-rule="evenodd"/></g><g transform="translate(1155.978 1486)"><path d="M53.276,138.218c-3.97-.023-7.254-8.021-7.254-12.094,0-6.653,5.058-8.11,7.007-8.11a8.15,8.15,0,0,1,2.644.642,5.97,5.97,0,0,0,1.51.427,4.742,4.742,0,0,0,1.083-.346,8.773,8.773,0,0,1,3.264-.779h.008a6.726,6.726,0,0,1,5.6,2.79l.408.606-.588.438a4.873,4.873,0,0,0-2.371,4.024,4.54,4.54,0,0,0,2.568,4.2c.368.218.749.444.749.936,0,.322-2.6,7.227-6.378,7.227a5.184,5.184,0,0,1-2.154-.516,4.414,4.414,0,0,0-1.917-.456,4.983,4.983,0,0,0-1.518.405,7.516,7.516,0,0,1-2.633.606Z" transform="translate(0 -111.162)"/><path d="M260.7,0c.109,3.922-2.7,6.643-5.5,6.473C254.737,3.343,258,0,260.7,0Z" transform="translate(-198.58)"/></g></g></g></svg>